<svg xmlns="http://www.w3.org/2000/svg" viewBox="0 0 45 45">
  <path d="M22.5 11.63V6M20 8h5" stroke="#000" stroke-linejoin="miter"/>
  <path d="M22.5 25s4.5-7.5 3-10.5c0 0-1-2.5-3-2.5s-3 2.5-3 2.5c-1.5 3 3 10.5 3 10.5" fill="#000" stroke-linecap="butt" stroke-linejoin="miter"/>
  <path d="M11.5 37c5.5 3.5 15.5 3.5 21 0v-7s9-4.5 6-10.5c-4 2-2 6-2 6 0 2.5-2.5 2.5-2.5 5 0 2.5-2.5 2.5-2.5 5s-2.5 0-2.5-2.5c0-2.5-2.5-2.5-2.5-5 0-2.5-2.5-2.5-2.5-5 0 0 2-4-2-6-3 6 6 10.5 6 10.5v7z" fill="#000"/>
  <path d="M20 8h5" stroke="#000" stroke-linejoin="miter"/>
</svg>