<svg xmlns="http://www.w3.org/2000/svg" viewBox="0 0 45 45">
  <path d="M8 12a2 2 0 1 1-4 0 2 2 0 1 1 4 0zM24.5 7.5a2 2 0 1 1-4 0 2 2 0 1 1 4 0zM41 12a2 2 0 1 1-4 0 2 2 0 1 1 4 0zM16 8.5a2 2 0 1 1-4 0 2 2 0 1 1 4 0zM33 9a2 2 0 1 1-4 0 2 2 0 1 1 4 0z" fill="#000" stroke="#000" stroke-linecap="round"/>
  <path d="M9 26c8.5-1.5 21-1.5 27 0l2-12-7 11V11l-5.5 13.5-3-15-3 15-5.5-14V25L7 14l2 12zM9 26c0 2 1.5 2 2.5 4 1 1.5 1 1 .5 3.5-1.5 1-1.5 2.5-1.5 2.5-1.5 1.5.5 2.5.5 2.5 6.5 1 16.5 1 23 0 0 0 1.5-1 2.5-1 .5-1.5 2.5-1.5 2.5-1.5H28s2.5 0 2.5 1.5 2 1 2.5 1 2.5-1.5 2.5-1.5h1.5s2 0 2 1.5 1 1.5 2.5 1.5c0 0 .5-1 2.5-1 2.5 0 2.5 1.5 2.5 1.5l2.5-.5c0-1.5 1.5-2 2.5-2s2.5.5 2.5 2.5-1 2.5-2.5 2.5-2.5-.5-2.5-1.5h-23S11 29.5 9 29.5s-2.5 1-2.5 2.5-1.5 1-2.5 1-2.5-.5-2.5-2.5 1-2.5 2.5-2.5z" fill="#000" stroke="#000"/>
</svg>